<?xml version="1.0" standalone="no"?>
<!DOCTYPE svg PUBLIC "-//W3C//DTD SVG 20010904//EN"
 "http://www.w3.org/TR/2001/REC-SVG-20010904/DTD/svg10.dtd">
<svg version="1.0" xmlns="http://www.w3.org/2000/svg"
 width="500.000000pt" height="500.000000pt" viewBox="0 0 500.000000 500.000000"
 preserveAspectRatio="xMidYMid meet">

<g transform="translate(0.000000,500.000000) scale(0.100000,-0.100000)"
fill="#000000" stroke="none">
<path d="M2485 4488 c-3 -8 -4 -63 -3 -124 2 -89 6 -109 18 -109 12 0 15 20
15 119 0 87 -3 120 -12 123 -7 3 -15 -2 -18 -9z"/>
<path d="M2140 4458 c0 -42 14 -88 26 -88 15 0 18 38 8 78 -7 23 -34 31 -34
10z"/>
<path d="M2824 4433 c-3 -21 -12 -69 -19 -108 -8 -42 -10 -74 -4 -79 16 -17
25 6 42 105 21 116 21 119 2 119 -9 0 -17 -14 -21 -37z"/>
<path d="M1810 4363 c0 -19 31 -108 42 -119 4 -3 11 -3 17 0 7 4 2 29 -12 68
-22 60 -47 88 -47 51z"/>
<path d="M3166 4372 c-2 -4 -14 -32 -25 -61 -20 -53 -20 -76 1 -69 12 4 48 95
48 121 0 17 -15 23 -24 9z"/>
<path d="M2173 4269 c8 -67 22 -95 33 -65 10 26 -9 119 -25 124 -12 4 -13 -7
-8 -59z"/>
<path d="M1495 4231 c-4 -7 21 -60 55 -119 74 -127 68 -118 82 -104 8 8 -4 37
-46 109 -66 112 -80 130 -91 114z"/>
<path d="M3451 4180 c-32 -52 -40 -85 -19 -78 12 4 78 106 78 121 0 4 -6 7
-14 7 -8 0 -28 -23 -45 -50z"/>
<path d="M1875 4201 c-6 -11 50 -187 67 -206 5 -5 12 -5 18 1 6 6 -3 42 -26
104 -37 100 -48 119 -59 101z"/>
<path d="M3046 4048 c-31 -84 -56 -156 -56 -160 0 -16 28 -8 35 10 25 63 105
285 105 293 0 5 -6 9 -14 9 -8 0 -35 -57 -70 -152z"/>
<path d="M2485 4168 c-3 -8 -4 -63 -3 -124 2 -89 6 -109 18 -109 12 0 15 20
15 119 0 87 -3 120 -12 123 -7 3 -15 -2 -18 -9z"/>
<path d="M2200 4128 c0 -35 22 -152 32 -172 6 -10 14 -14 19 -9 8 8 -15 176
-27 195 -10 16 -24 8 -24 -14z"/>
<path d="M3383 4058 c-27 -34 -135 -230 -130 -235 15 -15 39 14 97 117 41 72
59 115 53 121 -6 6 -13 5 -20 -3z"/>
<path d="M1217 4033 c-4 -3 -7 -10 -7 -14 0 -7 70 -94 132 -163 5 -6 12 -6 20
2 8 8 -7 32 -62 97 -40 47 -73 85 -74 85 -2 0 -6 -3 -9 -7z"/>
<path d="M3674 3925 c-73 -87 -94 -119 -85 -128 7 -7 14 -7 20 -2 54 61 181
218 181 225 0 32 -31 7 -116 -95z"/>
<path d="M2745 3980 c-7 -51 0 -79 16 -63 5 5 12 33 16 61 5 43 3 52 -10 52
-11 0 -17 -14 -22 -50z"/>
<path d="M1655 3957 c-7 -16 110 -227 125 -227 23 0 14 25 -41 121 -69 120
-76 128 -84 106z"/>
<path d="M1966 3942 c-9 -14 25 -92 41 -92 16 0 16 5 -1 55 -14 40 -29 54 -40
37z"/>
<path d="M2352 3869 c-140 -18 -332 -78 -467 -147 -137 -68 -388 -281 -443
-374 -11 -18 -25 -28 -41 -28 -15 0 -35 -13 -55 -36 -85 -98 -130 -144 -140
-144 -6 0 -72 -29 -146 -64 -74 -35 -156 -71 -182 -80 -65 -24 -138 -90 -138
-125 0 -23 8 -32 42 -49 81 -41 183 -80 313 -120 158 -50 154 -49 290 -66 108
-14 111 -15 143 -52 45 -52 98 -162 112 -231 6 -32 18 -87 26 -123 30 -137 20
-191 -95 -523 -63 -181 -52 -260 39 -304 29 -13 58 -39 80 -70 19 -26 46 -58
60 -71 108 -98 381 -151 710 -138 465 18 601 26 670 39 41 9 98 18 126 21 74
9 233 63 272 93 19 14 40 40 48 59 7 18 33 47 57 64 66 47 138 148 235 329 46
87 49 96 36 116 -13 20 -11 29 29 106 24 46 58 109 75 139 87 157 131 421 101
609 -22 141 -42 228 -64 283 -22 53 -174 286 -254 388 -194 247 -573 440 -946
480 -55 6 -139 15 -186 20 -98 11 -217 11 -307 -1z m553 -64 c231 -43 382
-101 597 -228 95 -56 330 -308 422 -451 47 -74 110 -215 124 -281 27 -122 36
-263 24 -363 -28 -218 -56 -297 -185 -523 -103 -179 -278 -439 -308 -457 -102
-62 -470 -146 -840 -191 -102 -13 -159 -14 -159 -3 0 4 -29 6 -66 4 -64 -4
-355 13 -423 25 -21 4 -32 2 -28 -4 4 -6 46 -13 94 -18 274 -23 270 -22 82
-23 -136 -2 -186 2 -220 13 -44 16 -71 8 -45 -14 18 -15 478 -35 626 -27 58 3
155 15 215 26 61 11 209 32 330 45 121 14 266 36 323 50 57 14 105 25 108 25
8 0 -25 -57 -51 -88 -72 -86 -463 -145 -1037 -158 l-273 -6 -167 35 c-143 30
-177 41 -237 76 -79 47 -106 76 -122 134 -16 60 0 125 75 301 98 230 119 307
120 446 0 83 -5 131 -17 171 -20 65 -121 219 -174 267 l-36 32 54 0 c32 0 63
-6 76 -15 27 -19 126 -168 158 -238 14 -30 28 -81 31 -115 4 -34 11 -62 15
-62 22 0 -3 132 -40 214 -10 23 -46 78 -80 124 -33 45 -61 84 -61 87 0 3 16 5
35 5 20 0 50 6 68 14 21 8 53 12 85 8 35 -3 52 -1 52 7 0 6 -14 11 -32 11
l-31 0 21 23 c39 42 30 78 -41 160 -84 95 -276 261 -407 350 -74 51 -106 79
-108 94 -4 30 178 219 298 309 154 116 348 202 507 223 130 18 151 19 333 16
137 -3 206 -9 315 -30z m-1483 -532 c2 -5 39 -32 83 -62 193 -131 478 -385
505 -451 12 -28 10 -33 -10 -55 -27 -29 -51 -31 -110 -10 -47 17 -80 20 -64 7
5 -5 28 -14 52 -21 48 -14 54 -28 15 -38 -45 -11 -463 14 -514 31 -24 8 -91
24 -149 36 -132 28 -369 105 -412 134 -18 12 -33 28 -33 36 0 22 83 74 167
105 40 16 115 46 167 67 51 22 99 37 105 35 6 -3 54 -38 106 -79 107 -83 326
-221 344 -215 6 2 -14 18 -44 35 -30 17 -108 75 -172 128 l-118 97 0 69 c0 40
-4 68 -10 68 -7 0 -8 -18 -4 -49 4 -29 2 -51 -4 -55 -12 -7 -54 42 -49 58 7
21 27 17 28 -6 1 -18 2 -19 6 -4 3 10 0 23 -6 29 -7 7 1 24 27 56 20 25 42 49
47 53 13 10 42 10 47 1z m196 -660 c39 -21 144 -148 177 -213 34 -66 55 -157
55 -234 0 -80 -44 -273 -76 -338 -50 -99 -115 -280 -121 -338 -3 -33 -7 -60
-9 -60 -18 0 -39 20 -56 53 -28 56 -21 125 26 247 57 148 68 171 82 166 6 -2
14 4 17 15 5 17 3 18 -11 7 -14 -11 -15 -10 -9 12 51 189 23 430 -66 573 -23
37 -50 81 -60 97 -18 29 -18 30 0 30 10 0 33 -8 51 -17z m2199 -920 c-39 -73
-163 -242 -183 -250 -27 -10 -26 5 5 64 63 117 167 242 203 243 3 0 -8 -26
-25 -57z"/>
<path d="M2380 3730 c-12 -8 -11 -10 7 -10 12 0 25 5 28 10 8 13 -15 13 -35 0z"/>
<path d="M2149 3705 c-231 -64 -407 -163 -548 -309 -53 -55 -26 -43 40 18 87
81 167 139 238 175 89 46 283 109 371 121 40 6 76 13 79 15 13 14 -105 0 -180
-20z"/>
<path d="M2674 3531 c3 -4 38 -10 78 -13 119 -8 433 -123 489 -179 11 -11 24
-18 27 -14 37 37 -428 215 -560 215 -22 0 -37 -4 -34 -9z"/>
<path d="M2405 3344 c-75 -12 -138 -37 -194 -80 -102 -76 -138 -165 -87 -213
l24 -23 -5 41 c-7 50 6 72 78 132 l52 44 -6 -35 c-3 -19 -19 -113 -36 -208
-16 -96 -31 -176 -34 -178 -2 -2 -24 -10 -48 -17 l-44 -13 45 -12 45 -11 -4
-118 c-4 -137 12 -246 40 -274 11 -11 24 -17 29 -14 6 4 10 68 10 149 0 157 6
206 25 206 7 0 32 -18 57 -40 46 -40 97 -113 161 -230 103 -189 191 -251 286
-202 50 25 51 41 3 35 -35 -5 -44 -1 -75 28 -20 19 -73 92 -117 164 -102 162
-166 243 -219 275 -22 14 -41 28 -41 32 0 3 17 12 38 18 118 38 254 156 290
253 53 143 27 225 -90 275 -31 13 -138 22 -183 16z m143 -74 c47 -29 67 -80
52 -138 -28 -111 -111 -211 -224 -268 l-71 -35 -3 35 c-6 66 68 403 91 418 25
16 121 8 155 -12z"/>
<path d="M3344 3275 c26 -19 42 -19 26 0 -7 8 -20 15 -29 15 -13 -1 -13 -3 3
-15z"/>
<path d="M3154 3192 c-58 -48 -115 -174 -144 -319 -17 -86 -20 -95 -35 -89
-20 7 -79 -12 -110 -36 -42 -33 -65 -93 -65 -169 0 -77 16 -105 66 -115 24 -5
37 0 63 21 17 15 33 26 35 24 1 -2 10 -25 20 -51 20 -53 56 -88 92 -88 28 0
30 7 8 38 -8 12 -20 50 -25 84 -19 117 25 407 95 619 17 55 29 99 26 99 -3 0
-14 -8 -26 -18z m-179 -514 c-9 -65 -26 -107 -53 -131 -28 -25 -42 -14 -42 31
1 74 43 152 82 152 18 0 19 -5 13 -52z"/>
<path d="M2708 2939 c-21 -12 -23 -40 -6 -57 18 -18 56 -14 68 7 13 25 13 27
-6 45 -18 18 -32 20 -56 5z"/>
<path d="M2677 2775 c-18 -17 -40 -138 -39 -213 1 -88 46 -131 99 -96 l27 17
-23 9 c-23 8 -23 11 -18 96 4 48 10 108 15 133 4 25 6 51 4 57 -5 17 -48 15
-65 -3z"/>
<path d="M3190 2758 c-79 -41 -113 -151 -74 -234 43 -90 168 -84 255 13 36 40
66 99 55 110 -3 3 -7 4 -9 2 -84 -117 -168 -166 -211 -123 -28 28 -20 44 23
44 105 0 160 149 71 195 -39 20 -58 19 -110 -7z m100 -52 c0 -28 -13 -47 -41
-61 -57 -30 -65 -14 -18 40 32 36 59 46 59 21z"/>
<path d="M1913 2613 c-36 -2 -63 -9 -63 -15 0 -6 9 -8 23 -4 12 3 52 6 90 6
38 0 67 4 67 10 0 6 -12 9 -27 8 -16 -1 -56 -3 -90 -5z"/>
<path d="M1893 2573 c15 -2 37 -2 50 0 12 2 0 4 -28 4 -27 0 -38 -2 -22 -4z"/>
<path d="M3731 2560 c-2 -48 -51 -210 -80 -267 -39 -78 -102 -162 -192 -256
-57 -60 -77 -75 -89 -68 -12 8 -10 15 15 41 16 16 24 30 19 30 -6 0 -23 -13
-39 -30 -19 -20 -39 -30 -58 -30 -81 0 -157 -109 -141 -203 15 -96 117 -139
210 -89 47 25 135 144 119 160 -4 4 -30 -18 -58 -50 -29 -31 -62 -61 -74 -67
-29 -15 -78 -14 -91 2 -23 28 -17 38 24 42 79 6 122 59 111 135 -6 43 -5 44
74 128 88 94 132 157 183 259 37 74 80 230 73 266 -4 21 -4 20 -6 -3z m-371
-656 c0 -20 -34 -53 -62 -60 -16 -3 -28 -2 -28 3 0 12 29 51 30 39 0 -5 7 -3
15 4 8 7 13 15 11 19 -3 4 4 7 15 7 10 0 19 -6 19 -12z"/>
<path d="M1900 2540 c0 -5 12 -10 28 -10 21 0 24 2 12 10 -20 13 -40 13 -40 0z"/>
<path d="M4006 2445 c-56 -206 -151 -411 -277 -597 -41 -60 -49 -78 -25 -59
31 26 211 343 245 431 38 96 83 258 79 279 -2 9 -12 -15 -22 -54z"/>
<path d="M2363 2448 c-69 -86 -164 -503 -162 -715 0 -120 19 -177 69 -211 30
-21 45 -23 106 -20 59 3 80 9 129 38 108 64 214 191 191 229 -3 5 -41 -27 -85
-70 -84 -85 -160 -129 -221 -129 -111 0 -123 98 -55 462 42 228 62 405 48 419
-7 7 -13 6 -20 -3z"/>
<path d="M2930 2296 c0 -15 7 -26 20 -29 18 -5 20 -14 20 -101 0 -89 1 -96 20
-96 17 0 20 7 22 53 2 45 4 87 7 135 1 6 8 12 16 12 9 0 15 9 15 25 0 24 -3
25 -60 25 -57 0 -60 -1 -60 -24z"/>
<path d="M3089 2299 c-19 -19 -21 -30 -17 -111 3 -98 15 -118 68 -118 51 0 64
21 68 108 5 104 -12 142 -63 142 -22 0 -43 -8 -56 -21z m69 -99 c3 -71 -10
-97 -34 -66 -17 24 -19 107 -2 124 23 23 33 6 36 -58z"/>
<path d="M2830 2131 c-8 -17 -7 -24 10 -41 24 -24 30 -24 54 -7 11 8 17 23 14
38 -4 33 -61 40 -78 10z"/>
<path d="M3211 2076 c-55 -41 -128 -156 -145 -231 -23 -96 -28 -110 -36 -90
-4 11 -11 67 -15 125 -8 112 -17 143 -39 134 -26 -10 -47 -84 -48 -169 -1
-125 28 -195 81 -195 52 0 68 23 112 163 44 141 66 192 106 245 32 42 26 49
-16 18z"/>
<path d="M1977 2080 c-3 -8 -22 -69 -42 -135 -20 -66 -52 -145 -70 -175 -73
-126 -112 -261 -95 -333 9 -43 59 -96 90 -97 10 0 6 8 -12 23 -33 28 -48 57
-48 94 0 47 38 170 90 290 50 113 104 301 97 332 -3 14 -5 14 -10 1z"/>
<path d="M2818 1988 c-32 -24 -58 -212 -38 -272 18 -56 71 -74 105 -36 18 19
17 20 -3 20 -31 0 -36 35 -21 132 19 129 18 162 -6 166 -11 1 -28 -3 -37 -10z"/>
<path d="M1876 1669 c-21 -45 -35 -83 -32 -86 3 -3 22 30 43 73 20 44 39 82
41 87 2 4 -1 7 -6 7 -5 0 -26 -36 -46 -81z"/>
<path d="M2360 1735 c-15 -18 -16 -83 -2 -97 29 -29 82 20 82 76 0 36 -56 50
-80 21z m65 -16 c11 -17 -16 -69 -36 -69 -23 0 -33 33 -19 60 11 21 44 27 55
9z"/>
<path d="M2375 1681 c-6 -11 9 -23 19 -14 9 9 7 23 -3 23 -6 0 -12 -4 -16 -9z"/>
<path d="M3630 1714 c0 -14 3 -14 15 -4 8 7 15 14 15 16 0 2 -7 4 -15 4 -8 0
-15 -7 -15 -16z"/>
<path d="M3486 1573 c-26 -8 -46 -16 -43 -19 5 -6 86 12 94 20 13 13 -4 13
-51 -1z"/>
<path d="M3425 1520 c-55 -16 -91 -29 -80 -29 30 -2 205 42 205 51 0 11 -12 9
-125 -22z"/>
<path d="M1830 1520 c0 -5 6 -10 14 -10 8 0 18 5 21 10 3 6 -3 10 -14 10 -12
0 -21 -4 -21 -10z"/>
<path d="M3519 1509 c-9 -5 -72 -22 -139 -39 -116 -28 -152 -40 -119 -40 27 0
264 61 273 70 14 14 4 20 -15 9z"/>
<path d="M1830 1494 c34 -7 110 -9 110 -2 0 5 -28 7 -62 7 -35 -1 -56 -3 -48
-5z"/>
<path d="M1840 1454 c35 -7 210 -9 210 -2 0 4 -51 7 -112 7 -62 -1 -106 -3
-98 -5z"/>
<path d="M1861 1409 c18 -11 189 -12 189 0 0 4 -46 8 -101 8 -62 1 -96 -3 -88
-8z"/>
<path d="M1980 1370 c30 -4 59 -3 65 1 5 5 -19 8 -55 8 l-65 -2 55 -7z"/>
<path d="M2115 1372 c12 -12 140 -20 151 -9 4 4 -15 7 -43 7 -28 0 -66 3 -84
6 -24 5 -31 3 -24 -4z"/>
<path d="M2620 1320 c0 -5 10 -10 23 -10 18 0 19 2 7 10 -19 13 -30 13 -30 0z"/>
<path d="M3348 1284 c-4 -3 -55 -12 -115 -19 -59 -8 -128 -19 -153 -24 -45
-10 -45 -10 -5 -6 190 19 264 29 290 40 24 11 26 14 9 14 -11 1 -23 -2 -26 -5z"/>
<path d="M2968 1223 c7 -3 16 -2 19 1 4 3 -2 6 -13 5 -11 0 -14 -3 -6 -6z"/>
<path d="M1385 3155 c0 -52 3 -95 7 -95 5 0 8 43 8 95 0 52 -3 95 -7 95 -5 0
-8 -43 -8 -95z"/>
<path d="M1350 3155 c0 -41 3 -75 8 -75 4 0 8 34 9 75 0 41 -3 75 -8 75 -5 0
-9 -34 -9 -75z"/>
<path d="M1138 3030 c-56 -30 -55 -41 2 -17 27 11 50 25 50 29 0 12 -11 9 -52
-12z"/>
<path d="M1727 2882 c-34 -37 -9 -80 38 -68 32 8 41 30 27 62 -14 29 -42 31
-65 6z m53 -26 c0 -27 -38 -44 -47 -20 -8 22 5 44 27 44 14 0 20 -7 20 -24z"/>
<path d="M851 2880 c8 -24 126 -77 236 -104 56 -14 108 -26 114 -26 29 0 -6
13 -112 41 -113 30 -159 49 -213 84 -22 15 -28 16 -25 5z"/>
<path d="M1290 2740 c8 -5 24 -9 35 -9 l20 0 -20 9 c-11 5 -27 9 -35 9 -13 1
-13 0 0 -9z"/>
<path d="M1544 2680 c33 -10 264 -15 273 -6 8 7 10 7 -162 11 -89 2 -130 0
-111 -5z"/>
<path d="M1745 2345 c5 -11 10 -65 13 -120 3 -80 -1 -113 -17 -165 -22 -70
-21 -93 2 -38 27 65 38 159 27 243 -6 44 -15 84 -21 90 -9 7 -10 5 -4 -10z"/>
<path d="M1385 3820 c-7 -12 95 -138 113 -139 23 -2 12 21 -40 85 -52 65 -62
72 -73 54z"/>
<path d="M966 3781 c-7 -10 226 -211 244 -211 28 0 -3 36 -108 125 -113 95
-126 103 -136 86z"/>
<path d="M3970 3754 c-41 -38 -50 -54 -27 -54 19 0 98 70 91 81 -9 16 -23 10
-64 -27z"/>
<path d="M3514 3735 c-18 -24 -24 -39 -17 -46 12 -12 77 57 68 72 -11 16 -23
10 -51 -26z"/>
<path d="M3840 3647 c-19 -17 -55 -49 -80 -69 -34 -28 -42 -40 -33 -49 9 -9
32 6 97 61 78 66 96 90 63 90 -7 0 -28 -15 -47 -33z"/>
<path d="M1530 3641 c0 -6 11 -23 24 -38 18 -20 28 -25 36 -17 8 8 5 18 -10
37 -21 26 -50 36 -50 18z"/>
<path d="M1251 3538 c0 -16 98 -98 116 -98 24 0 13 18 -39 64 -53 46 -79 57
-77 34z"/>
<path d="M765 3500 c-10 -16 118 -91 132 -77 10 10 -7 26 -61 56 -59 34 -62
35 -71 21z"/>
<path d="M4138 3464 c-43 -24 -78 -51 -78 -59 0 -8 3 -15 8 -15 15 0 165 95
165 105 -3 19 -19 14 -95 -31z"/>
<path d="M936 3401 c-3 -5 0 -13 7 -19 31 -24 229 -133 234 -128 14 14 -13 36
-114 94 -115 65 -119 67 -127 53z"/>
<path d="M3965 3365 c-22 -14 -44 -26 -49 -28 -5 -2 -7 -11 -3 -20 6 -15 12
-14 54 11 26 16 49 36 51 45 5 23 -5 21 -53 -8z"/>
<path d="M624 3188 c-3 -5 -2 -14 2 -18 11 -11 202 -80 220 -80 26 0 14 21
-20 35 -105 44 -196 73 -202 63z"/>
<path d="M4313 3178 c-24 -12 -29 -23 -13 -33 12 -8 80 21 80 34 0 14 -38 13
-67 -1z"/>
<path d="M4152 3120 c-83 -32 -90 -36 -76 -50 13 -13 169 43 169 61 0 20 -16
18 -93 -11z"/>
<path d="M910 3076 c0 -9 7 -16 16 -16 9 0 14 5 12 12 -6 18 -28 21 -28 4z"/>
<path d="M530 2845 c0 -18 67 -32 82 -17 8 8 4 14 -16 22 -38 14 -66 13 -66
-5z"/>
<path d="M4363 2846 c-68 -13 -82 -21 -67 -35 14 -15 174 18 174 35 0 17 -22
17 -107 0z"/>
<path d="M660 2826 c0 -18 31 -29 44 -16 8 8 7 14 -4 20 -22 14 -40 12 -40 -4z"/>
<path d="M4178 2813 c-24 -6 -23 -33 1 -33 29 0 71 18 71 30 0 10 -39 12 -72
3z"/>
<path d="M505 2510 c-14 -22 10 -30 93 -30 92 0 130 11 102 30 -20 13 -187 13
-195 0z"/>
<path d="M775 2509 c-16 -24 18 -29 176 -27 138 3 164 5 164 18 0 13 -26 15
-167 18 -114 2 -169 -1 -173 -9z"/>
<path d="M1205 2510 c-15 -24 12 -30 141 -30 124 0 135 2 132 18 -3 15 -19 17
-135 20 -82 2 -134 -1 -138 -8z"/>
<path d="M4175 2510 c-14 -23 11 -30 103 -30 101 0 141 11 112 30 -20 13 -207
13 -215 0z"/>
<path d="M4445 2510 c-4 -7 -3 -16 3 -22 14 -14 47 -6 47 12 0 18 -40 26 -50
10z"/>
<path d="M1451 2331 c-47 -9 -86 -22 -89 -28 -5 -16 21 -16 107 -2 69 12 92
23 76 38 -6 4 -47 1 -94 -8z"/>
<path d="M1143 2278 c-72 -14 -103 -24 -103 -34 0 -18 0 -18 146 8 85 15 124
26 124 35 0 17 -41 15 -167 -9z"/>
<path d="M870 2229 c-52 -10 -96 -18 -97 -18 -10 -2 0 -31 10 -30 26 1 198 36
203 42 7 7 -4 27 -14 26 -4 -1 -50 -9 -102 -20z"/>
<path d="M4140 2208 c0 -18 119 -42 135 -27 16 16 -8 27 -72 35 -52 5 -63 4
-63 -8z"/>
<path d="M640 2189 c-25 -4 -60 -11 -77 -14 -21 -4 -33 -12 -33 -21 0 -13 9
-15 52 -9 75 11 139 29 141 40 3 13 -28 15 -83 4z"/>
<path d="M4330 2177 c0 -16 16 -21 93 -32 38 -6 47 -4 47 8 0 16 -16 21 -92
32 -39 6 -48 4 -48 -8z"/>
<path d="M1373 2108 c-83 -31 -133 -55 -133 -64 0 -8 4 -14 8 -14 4 0 68 22
142 49 89 32 136 54 138 65 5 23 -7 20 -155 -36z"/>
<path d="M1025 1980 c-81 -29 -130 -53 -130 -61 0 -18 8 -16 145 33 123 44
140 53 125 67 -6 5 -62 -10 -140 -39z"/>
<path d="M1453 1914 c-69 -38 -82 -51 -60 -60 16 -6 139 66 139 81 -1 19 -18
14 -79 -21z"/>
<path d="M4030 1937 c0 -12 60 -37 89 -37 24 0 9 22 -24 36 -43 18 -65 18 -65
1z"/>
<path d="M726 1872 c-92 -34 -132 -62 -90 -62 35 0 214 72 214 86 0 20 -13 17
-124 -24z"/>
<path d="M4175 1891 c-7 -12 15 -24 103 -56 77 -28 106 -31 100 -12 -4 11
-158 75 -185 76 -6 1 -14 -3 -18 -8z"/>
<path d="M1197 1766 c-142 -81 -156 -92 -142 -105 13 -12 279 142 283 164 2 8
0 15 -5 15 -4 0 -66 -33 -136 -74z"/>
<path d="M3900 1686 c0 -17 210 -138 228 -131 22 8 7 21 -104 84 -112 65 -124
69 -124 47z"/>
<path d="M890 1589 c-126 -73 -134 -79 -121 -92 12 -12 241 119 241 139 0 8
-3 14 -8 14 -4 0 -54 -27 -112 -61z"/>
<path d="M1280 1499 c-152 -129 -190 -169 -160 -169 17 0 351 283 347 294 -2
5 -7 11 -13 12 -5 2 -83 -60 -174 -137z"/>
<path d="M4180 1525 c0 -19 39 -40 52 -27 6 6 2 15 -13 26 -29 20 -39 20 -39
1z"/>
<path d="M3750 1441 c0 -5 16 -23 36 -41 28 -24 39 -29 48 -20 8 9 2 19 -24
41 -34 29 -60 37 -60 20z"/>
<path d="M1506 1340 c-37 -41 -43 -55 -27 -64 11 -7 81 72 81 91 0 23 -16 14
-54 -27z"/>
<path d="M3874 1349 c-5 -9 11 -30 47 -62 73 -67 98 -82 110 -70 9 9 -16 33
-133 130 -13 11 -18 12 -24 2z"/>
<path d="M1006 1266 c-33 -28 -46 -45 -38 -50 14 -8 23 -3 74 38 38 31 49 56
26 56 -7 0 -35 -20 -62 -44z"/>
<path d="M1321 1119 c-61 -71 -111 -134 -111 -139 0 -32 33 -4 129 112 103
122 126 158 102 158 -6 0 -60 -59 -120 -131z"/>
<path d="M3567 1233 c-13 -12 -7 -21 54 -95 59 -70 89 -93 89 -68 0 10 -126
170 -134 170 -2 0 -6 -3 -9 -7z"/>
<path d="M1706 1158 c-76 -123 -102 -185 -74 -176 12 4 116 174 118 191 1 16
-30 5 -44 -15z"/>
<path d="M3285 1130 c-6 -10 48 -114 65 -125 22 -13 19 20 -6 65 -32 58 -49
76 -59 60z"/>
<path d="M1972 1088 c-17 -21 -25 -65 -13 -73 15 -8 46 64 33 77 -5 5 -13 4
-20 -4z"/>
<path d="M3000 1086 c0 -12 74 -212 82 -221 5 -5 12 -5 18 1 14 14 -63 218
-84 222 -9 2 -16 1 -16 -2z"/>
<path d="M2484 1067 c-10 -28 0 -82 16 -82 11 0 15 12 15 44 0 44 -19 68 -31
38z"/>
<path d="M2231 1042 c-6 -11 -11 -35 -11 -52 0 -44 22 -34 32 15 10 45 -4 68
-21 37z"/>
<path d="M2747 1054 c-8 -8 2 -82 15 -107 16 -31 29 -7 22 41 -6 47 -24 78
-37 66z"/>
<path d="M3734 1026 c-8 -21 35 -71 49 -57 10 10 -4 41 -27 60 -13 11 -17 10
-22 -3z"/>
<path d="M1916 948 c-9 -36 -7 -48 8 -48 13 0 26 28 26 58 0 21 -27 13 -34
-10z"/>
<path d="M3380 957 c0 -17 95 -183 110 -192 5 -3 12 -1 15 5 4 6 -17 52 -47
102 -51 87 -78 117 -78 85z"/>
<path d="M1572 923 c-47 -70 -84 -145 -74 -155 6 -6 16 0 29 19 32 45 83 139
83 152 0 20 -18 12 -38 -16z"/>
<path d="M2205 908 c-16 -44 -45 -252 -37 -260 6 -6 12 -6 17 2 8 13 45 214
45 247 0 24 -17 32 -25 11z"/>
<path d="M2487 914 c-4 -4 -7 -71 -7 -149 0 -111 3 -145 14 -154 8 -7 17 -8
19 -4 3 5 5 76 4 158 -2 139 -8 170 -30 149z"/>
<path d="M2770 883 c0 -5 14 -84 30 -178 16 -93 30 -171 30 -172 0 -2 7 -3 15
-3 19 0 19 -2 -5 138 -36 203 -40 222 -56 222 -8 0 -14 -3 -14 -7z"/>
<path d="M1874 824 c-9 -22 -12 -40 -6 -46 12 -12 30 12 38 50 9 45 -13 42
-32 -4z"/>
<path d="M3116 782 c-8 -13 47 -155 62 -160 18 -6 14 25 -12 98 -23 62 -38 81
-50 62z"/>
<path d="M1825 694 c-17 -42 -20 -74 -4 -74 10 0 34 49 41 84 6 35 -21 28 -37
-10z"/>
<path d="M2151 592 c-15 -29 -14 -62 3 -62 8 0 17 14 21 31 9 39 -8 60 -24 31z"/>
<path d="M2484 546 c-8 -22 3 -49 19 -43 6 2 12 14 12 27 0 27 -22 39 -31 16z"/>
</g>
</svg>
