<?xml version="1.0" standalone="no"?>
<!DOCTYPE svg PUBLIC "-//W3C//DTD SVG 20010904//EN"
 "http://www.w3.org/TR/2001/REC-SVG-20010904/DTD/svg10.dtd">
<svg version="1.0" xmlns="http://www.w3.org/2000/svg"
 width="500.000000pt" height="500.000000pt" viewBox="0 0 500.000000 500.000000"
 preserveAspectRatio="xMidYMid meet">

<g transform="translate(0.000000,500.000000) scale(0.100000,-0.100000)"
fill="#000000" stroke="none">
<path d="M1095 3440 c-66 -28 -130 -61 -143 -74 l-24 -23 -51 17 c-70 24 -165
41 -263 47 -89 5 -114 -6 -114 -52 0 -44 24 -55 115 -55 46 0 87 5 90 10 10
17 85 11 146 -11 l59 -22 0 -48 c0 -36 6 -55 26 -78 26 -31 41 -37 175 -66 70
-15 76 -18 72 -39 l-5 -22 -111 23 c-141 30 -165 28 -190 -15 -19 -32 -19 -33
27 -375 44 -335 45 -346 39 -529 -7 -213 -7 -214 72 -267 l46 -31 219 0 219 0
46 31 c79 53 79 54 72 266 -7 182 -6 192 39 529 46 343 46 344 27 376 -25 43
-49 45 -190 15 l-111 -23 -5 22 c-4 21 2 24 72 39 134 29 149 35 175 66 20 23
26 42 26 78 l0 48 59 22 c61 22 136 28 146 11 3 -5 44 -10 90 -10 91 0 115 11
115 54 0 45 -30 58 -117 53 -115 -8 -201 -23 -259 -46 l-51 -20 -23 24 c-12
13 -78 47 -145 74 -168 69 -205 69 -370 1z m283 -36 c19 -15 40 -42 48 -60 68
-162 -133 -299 -257 -175 -66 66 -65 159 2 223 21 20 49 39 61 41 46 10 111
-3 146 -29z m-383 -558 c70 -30 115 -146 115 -296 0 -100 -21 -206 -52 -269
-45 -91 -50 -79 -91 241 -21 161 -41 303 -44 316 -4 17 -1 22 16 22 12 0 37
-6 56 -14z m642 -8 c-3 -13 -23 -155 -44 -316 -41 -320 -46 -332 -91 -241 -31
63 -52 169 -52 269 0 187 66 308 169 310 19 0 22 -4 18 -22z m-234 -646 c25
-11 68 -41 95 -66 27 -25 54 -46 59 -46 22 0 32 -105 13 -140 -6 -11 -19 -24
-29 -30 -16 -8 -23 -3 -44 33 -92 156 -342 156 -434 0 -21 -36 -28 -41 -44
-33 -26 15 -39 43 -39 87 0 51 10 83 24 83 7 0 28 16 47 36 96 99 233 129 352
76z"/>
<path d="M1750 2851 l0 -231 98 0 c108 0 150 14 186 63 29 39 27 99 -3 131
-14 14 -31 26 -38 26 -8 0 2 15 21 34 39 36 47 80 24 131 -22 50 -72 69 -185
73 l-103 4 0 -231z m204 133 c23 -22 20 -71 -3 -84 -11 -5 -45 -10 -75 -10
l-56 0 0 55 0 55 59 0 c41 0 65 -5 75 -16z m4 -190 c26 -18 28 -50 5 -76 -12
-14 -31 -18 -80 -18 l-63 0 0 55 0 55 58 0 c36 0 66 -6 80 -16z"/>
<path d="M2117 3073 c-4 -3 -7 -107 -7 -230 l0 -223 155 0 155 0 0 40 0 40
-115 0 -115 0 0 55 0 55 95 0 95 0 0 40 0 40 -95 0 -95 0 0 55 0 55 115 0 115
0 0 40 0 40 -148 0 c-82 0 -152 -3 -155 -7z"/>
<path d="M2470 2850 l0 -230 40 0 40 0 0 162 0 162 112 -162 c112 -161 113
-162 150 -162 l38 0 0 230 0 230 -35 0 -35 0 -2 -162 -3 -163 -114 163 c-114
162 -114 162 -152 162 l-39 0 0 -230z"/>
<path d="M3061 3069 c-42 -17 -82 -50 -109 -93 -24 -37 -27 -50 -27 -133 0
-86 2 -94 30 -135 44 -61 101 -90 180 -91 43 -1 71 5 89 16 31 21 46 22 46 2
0 -10 10 -15 30 -15 l30 0 0 130 0 130 -75 0 -75 0 0 -35 c0 -34 1 -35 40 -35
39 0 40 -1 40 -34 0 -88 -151 -117 -226 -42 -60 60 -55 177 10 234 48 42 102
49 162 23 l47 -21 24 22 c13 12 23 25 23 29 0 4 -23 19 -52 33 -55 27 -139 34
-187 15z"/>
<path d="M3410 2851 l0 -231 40 0 40 0 0 68 c0 56 4 72 20 87 11 10 21 16 23
14 2 -2 34 -41 71 -86 l68 -83 49 0 49 0 -95 112 c-58 69 -92 115 -87 122 5 6
45 56 90 112 45 55 82 104 82 107 0 4 -19 7 -43 7 -43 0 -44 -1 -133 -111
l-89 -112 -5 109 -5 109 -37 3 -38 3 0 -230z"/>
<path d="M3807 3073 c-4 -3 -7 -107 -7 -230 l0 -223 155 0 155 0 0 40 0 40
-115 0 -115 0 0 55 0 55 95 0 95 0 0 40 0 40 -95 0 -95 0 0 55 0 55 115 0 115
0 0 40 0 40 -148 0 c-82 0 -152 -3 -155 -7z"/>
<path d="M4160 2850 l0 -230 126 0 125 0 -3 38 -3 37 -82 3 -83 3 0 189 0 190
-40 0 -40 0 0 -230z"/>
<path d="M1815 2536 c-54 -32 -79 -78 -79 -141 0 -97 69 -167 162 -167 144 0
223 156 136 269 -50 66 -146 83 -219 39z m139 -67 c76 -60 38 -169 -59 -169
-39 0 -85 50 -85 92 0 80 84 125 144 77z"/>
<path d="M2140 2331 l0 -231 35 0 35 0 2 161 3 162 113 -162 113 -161 40 0 39
0 0 230 0 230 -40 0 -40 0 -2 -159 -3 -159 -110 156 c-106 151 -111 157 -148
160 l-37 3 0 -230z"/>
<path d="M2714 2541 c-49 -23 -107 -88 -122 -140 -35 -116 18 -246 118 -289
53 -22 140 -20 184 6 35 21 36 21 36 2 0 -16 7 -20 35 -20 l35 0 0 130 0 130
-75 0 -75 0 0 -35 c0 -33 2 -35 35 -35 34 0 35 -1 35 -39 0 -31 -5 -42 -27
-56 -69 -45 -184 -20 -216 48 -22 45 -22 123 1 167 35 72 138 97 213 53 27
-16 29 -16 54 7 20 19 23 26 12 38 -40 49 -168 67 -243 33z"/>
<path d="M3077 2553 c-4 -3 -7 -107 -7 -230 l0 -223 155 0 155 0 0 40 0 40
-115 0 -115 0 0 55 0 55 95 0 95 0 0 40 0 40 -95 0 -95 0 0 55 0 55 115 0 115
0 0 40 0 40 -148 0 c-82 0 -152 -3 -155 -7z"/>
<path d="M3430 2330 l0 -230 126 0 125 0 -3 38 -3 37 -82 3 -83 3 0 189 0 190
-40 0 -40 0 0 -230z"/>
<path d="M1750 2140 l0 -40 150 0 150 0 0 40 0 40 -150 0 -150 0 0 -40z"/>
<path d="M1130 1652 c0 -86 4 -132 12 -140 17 -17 259 -17 276 0 8 8 12 54 12
140 l0 128 -150 0 -150 0 0 -128z"/>
</g>
</svg>
